<svg xmlns="http://www.w3.org/2000/svg" width="100%" height="100%" viewBox="0 0 1511 808" preserveAspectRatio="none" fill="none">
<path d="M0 40.4781C0 18.1226 18.1227 0 40.4781 0H48.295C66.3333 0 80.9562 14.6229 80.9562 32.6612V32.6612C80.9562 50.6994 95.5791 65.3223 113.617 65.3223H332.522C350.56 65.3223 365.183 50.6994 365.183 32.6612V32.6612C365.183 14.6229 379.806 0 397.844 0H745.325H1117.99H1304.32H1350.29C1366.64 0 1379.88 13.2482 1379.88 29.5908V29.5908C1379.88 45.9334 1393.13 59.1816 1409.48 59.1816H1486.3C1499.94 59.1816 1511 70.2401 1511 83.8814V83.8814C1511 97.5227 1499.94 108.581 1486.3 108.581H1148.07C1081.8 108.581 1028.07 162.307 1028.07 228.581V397.153V579.615C1028.07 645.889 1081.8 699.615 1148.07 699.615H1436.46C1466.39 699.615 1490.65 723.878 1490.65 753.807V753.807C1490.65 783.737 1466.39 808 1436.46 808H120C53.7259 808 0 754.274 0 688V40.4781Z" fill="#1E1E1E"/>
</svg>